<?xml version="1.0" encoding="utf-8"?>
<!-- Generator: Adobe Illustrator 17.0.0, SVG Export Plug-In . SVG Version: 6.00 Build 0)  -->
<!DOCTYPE svg PUBLIC "-//W3C//DTD SVG 1.1//EN" "http://www.w3.org/Graphics/SVG/1.1/DTD/svg11.dtd">
<svg version="1.1"
	 id="Layer_1" xmlns:sodipodi="http://sodipodi.sourceforge.net/DTD/sodipodi-0.dtd" xmlns:rdf="http://www.w3.org/1999/02/22-rdf-syntax-ns#" xmlns:svg="http://www.w3.org/2000/svg" xmlns:cc="http://creativecommons.org/ns#" xmlns:dc="http://purl.org/dc/elements/1.1/" xmlns:inkscape="http://www.inkscape.org/namespaces/inkscape" inkscape:version="0.48.4 r9939"
	 xmlns="http://www.w3.org/2000/svg" xmlns:xlink="http://www.w3.org/1999/xlink" x="0px" y="0px" width="96px" height="96px"
	 viewBox="0 0 96 96" enable-background="new 0 0 96 96" xml:space="preserve">
<g id="DO_NOT_EDIT_-_BOUNDING_BOX">
	<rect id="BOUNDING_BOX" fill="none" width="96" height="96"/>
</g>
<g id="DO_NOT_EDIT_-_SHADOW">
	<path id="SHADOW" opacity="0.4" enable-background="new    " d="M88.023,49c0,29.633-10.364,40-40,40c-29.635,0-40-10.367-40-40
		c0-29.634,10.366-40,40-40C77.659,9,88,19.4,88,49H88.023z"/>
</g>
<g id="White_BACKGROUNDS">
	<g id="White">
		
			<linearGradient id="White_2_" gradientUnits="userSpaceOnUse" x1="3.0395" y1="3587.6311" x2="3.0395" y2="3667.6101" gradientTransform="matrix(1 0 0 1 44.9605 -3579.6211)">
			<stop  offset="0" style="stop-color:#FFFFFF"/>
			<stop  offset="0.4424" style="stop-color:#F0F0F0"/>
			<stop  offset="0.6364" style="stop-color:#F0F0F0"/>
			<stop  offset="1" style="stop-color:#FFFFFF"/>
		</linearGradient>
		<path id="White_1_" fill="url(#White_2_)" d="M8,47.989c0,29.6,10.4,40,40,40c29.637,0,40-10.367,40-40
			c0-28.985-9.926-39.53-38.091-39.979h-3.817C17.928,8.5,8,19,8,47.989z"/>
		
			<linearGradient id="HIGHLIGHT_GR3_1_" gradientUnits="userSpaceOnUse" x1="3.0395" y1="3587.6211" x2="3.0395" y2="3667.6211" gradientTransform="matrix(1 0 0 1 44.9605 -3579.6211)">
			<stop  offset="0" style="stop-color:#FFFFFF"/>
			<stop  offset="0.4424" style="stop-color:#F0F0F0"/>
			<stop  offset="0.6364" style="stop-color:#F0F0F0"/>
			<stop  offset="1" style="stop-color:#FFFFFF"/>
		</linearGradient>
		<path id="HIGHLIGHT_GR3" opacity="0.25" fill="url(#HIGHLIGHT_GR3_1_)" enable-background="new    " d="M48,8
			C18.365,8,8,18.4,8,48s10.4,40,40,40c29.637,0,40-10.367,40-40C88,18.4,77.6,8,48,8z M48,87C18.842,87,9,77.2,9,48
			S18.842,9,48,8.977S87,18.8,87,48s-9.842,39-39,39.023V87z"/>
	</g>
</g>
<g id="g222" opacity="0.5">
	<path id="path224" d="M16.147,74.465V63.646h4.245c0.69,0,1.3,0.1,1.9,0.4c0.55,0.3,1,0.6,1.4,1.1c0.38,0.5,0.7,1,0.9,1.701
		c0.201,0.7,0.3,1.4,0.3,2.17c-0.007,1.189-0.231,2.215-0.671,3.1c-0.441,0.861-1.065,1.527-1.872,1.998
		c-0.438,0.24-0.824,0.359-1.159,0.359h-5.043V74.465z M17.911,65.246v7.619h2.707c0.164,0,0.319-0.01,0.466-0.031
		c0.147-0.02,0.287-0.061,0.421-0.123c0.133-0.061,0.265-0.146,0.395-0.256s0.263-0.252,0.4-0.43c0.171-0.213,0.304-0.438,0.4-0.678
		c0.096-0.238,0.169-0.482,0.221-0.732c0.051-0.25,0.087-0.504,0.107-0.764s0.038-0.52,0.051-0.779v-0.299
		c0-0.574-0.068-1.078-0.205-1.518c-0.137-0.436-0.33-0.805-0.58-1.102s-0.547-0.523-0.892-0.676
		c-0.346-0.154-0.727-0.232-1.144-0.232L17.911,65.246L17.911,65.246z"/>
	<path id="path226" d="M26.821,74.465V63.646h7.639v1.6h-5.875v2.883h5.65v1.568h-5.65v3.168h6.132v1.6L26.821,74.465z"/>
	<path id="path228" d="M36.429,63.646h1.764v9.219h5.127v1.6h-6.891V63.646z"/>
	<path id="path230" d="M45.36,74.465V63.646h1.764v10.818L45.36,74.465L45.36,74.465z"/>
	<path id="path232" d="M57.367,71.234c0.055-0.205,0.096-0.57,0.123-1.096h-3.168v-1.621h4.789v6.01H57.87l-0.257-1.107
		c-0.335,0.279-0.641,0.508-0.917,0.682c-0.277,0.174-0.551,0.311-0.82,0.41c-0.271,0.1-0.551,0.168-0.841,0.2
		c-0.291,0.041-0.614,0.068-0.969,0.082c-0.227,0-0.479-0.029-0.76-0.092c-0.28-0.061-0.561-0.141-0.84-0.24
		c-0.281-0.1-0.544-0.213-0.79-0.344c-0.246-0.129-0.444-0.264-0.595-0.4c-0.574-0.533-1.032-1.174-1.374-1.922
		s-0.513-1.625-0.513-2.631c0-0.785,0.107-1.52,0.323-2.205c0.215-0.682,0.541-1.279,0.979-1.789
		c0.437-0.508,0.982-0.916,1.635-1.219c0.653-0.305,1.417-0.471,2.292-0.498h0.226c0.663,0,1.2,0.1,1.8,0.3
		c0.505,0.2,0.9,0.5,1.3,0.836c0.358,0.3,0.6,0.7,0.9,1.195c0.219,0.4,0.4,0.9,0.5,1.389h-1.743
		c-0.027-0.293-0.123-0.568-0.287-0.826c-0.164-0.256-0.374-0.479-0.631-0.672c-0.256-0.189-0.55-0.34-0.882-0.451
		c-0.331-0.107-0.682-0.164-1.051-0.164c-0.547,0-1.034,0.1-1.461,0.299c-0.428,0.197-0.79,0.477-1.087,0.8
		c-0.298,0.357-0.525,0.787-0.682,1.285c-0.158,0.5-0.236,1.051-0.236,1.652c0,0.6,0.1,1.2,0.2,1.7c0.156,0.5,0.4,0.9,0.7,1.287
		c0.297,0.4,0.7,0.6,1.1,0.83c0.427,0.2,0.9,0.3,1.5,0.3c0.396,0,0.759-0.057,1.087-0.17c0.328-0.111,0.617-0.262,0.866-0.451
		c0.25-0.188,0.458-0.402,0.626-0.645c0.167-0.244,0.288-0.49,0.363-0.744v0.03H57.367z"/>
	<path id="path234" d="M67.99,74.465v-4.768h-4.911v4.768h-1.764V63.646h1.764v4.482h4.911v-4.482h1.764v10.818L67.99,74.465
		L67.99,74.465z"/>
	<path id="path236" d="M74.728,74.465v-9.219h-3.425v-1.6h8.572v1.6h-3.384v9.219H74.728z"/>
</g>
<g id="g238">
	<path id="path240" d="M16.677,73.923V63.104h4.245c0.69,0,1.3,0.1,1.9,0.4s1.016,0.6,1.4,1.112c0.38,0.5,0.7,1,0.9,1.7
		c0.201,0.7,0.3,1.4,0.3,2.169c-0.007,1.189-0.231,2.215-0.671,3.076c-0.441,0.861-1.065,1.528-1.872,2
		c-0.438,0.24-0.824,0.359-1.159,0.359h-5.043V73.923z M18.44,64.704v7.619h2.707c0.164,0,0.319-0.01,0.466-0.031
		c0.147-0.02,0.287-0.061,0.421-0.123c0.133-0.061,0.265-0.146,0.395-0.256s0.263-0.253,0.4-0.431
		c0.171-0.212,0.304-0.438,0.4-0.677s0.169-0.483,0.221-0.733c0.051-0.249,0.087-0.504,0.107-0.764s0.038-0.52,0.051-0.779v-0.298
		c0-0.574-0.068-1.079-0.205-1.518c-0.137-0.437-0.33-0.805-0.58-1.102c-0.25-0.298-0.547-0.523-0.892-0.677
		c-0.346-0.154-0.727-0.231-1.144-0.231L18.44,64.704L18.44,64.704z"/>
	<path id="path242" d="M27.351,73.923V63.104h7.639v1.6h-5.875v2.882h5.65v1.569h-5.65v3.168h6.132v1.6H27.351z"/>
	<path id="path244" d="M36.959,63.104h1.764v9.219h5.127v1.6h-6.891V63.104z"/>
	<path id="path246" d="M45.89,73.923V63.104h1.764v10.818L45.89,73.923L45.89,73.923z"/>
	<path id="path248" d="M57.898,70.692c0.053-0.205,0.094-0.57,0.123-1.097h-3.17v-1.62h4.789v6.009H58.4l-0.256-1.107
		c-0.336,0.28-0.643,0.508-0.918,0.682c-0.277,0.175-0.551,0.312-0.82,0.41c-0.271,0.1-0.551,0.169-0.842,0.2
		s-0.613,0.068-0.969,0.082c-0.225,0-0.479-0.03-0.758-0.092c-0.281-0.062-0.563-0.142-0.842-0.241
		c-0.281-0.099-0.543-0.213-0.789-0.343s-0.445-0.264-0.596-0.4c-0.574-0.533-1.031-1.174-1.373-1.923
		c-0.342-0.748-0.514-1.625-0.514-2.63c0-0.786,0.107-1.521,0.324-2.205c0.215-0.683,0.541-1.279,0.979-1.789
		c0.438-0.509,0.982-0.916,1.635-1.22c0.654-0.305,1.418-0.47,2.293-0.497h0.225c0.664,0,1.2,0.1,1.8,0.3
		c0.506,0.2,0.9,0.5,1.3,0.836c0.359,0.3,0.6,0.7,0.9,1.194c0.219,0.4,0.4,0.9,0.5,1.39h-1.744
		c-0.027-0.294-0.123-0.569-0.287-0.826c-0.164-0.256-0.373-0.479-0.631-0.672c-0.256-0.19-0.549-0.341-0.881-0.451
		c-0.332-0.108-0.682-0.164-1.051-0.164c-0.547,0-1.035,0.1-1.461,0.298c-0.428,0.198-0.791,0.477-1.088,0.8
		c-0.297,0.358-0.525,0.788-0.682,1.286c-0.158,0.5-0.236,1.05-0.236,1.651c0,0.6,0.1,1.2,0.2,1.7c0.156,0.5,0.4,0.9,0.7,1.287
		c0.297,0.4,0.7,0.6,1.1,0.83c0.426,0.2,0.9,0.3,1.5,0.3c0.396,0,0.758-0.057,1.086-0.17c0.328-0.112,0.617-0.263,0.867-0.451
		c0.25-0.188,0.457-0.403,0.625-0.646c0.168-0.243,0.289-0.49,0.365-0.743v0.032H57.898z"/>
	<path id="path250" d="M68.521,73.923v-4.768h-4.912v4.768h-1.764V63.104h1.764v4.481h4.912v-4.481h1.764v10.818L68.521,73.923
		L68.521,73.923z"/>
	<path id="path252" d="M75.258,73.923v-9.219h-3.426v-1.6h8.572v1.6h-3.383v9.219H75.258z"/>
</g>
<g id="g254" opacity="0.5">
	<path id="path256" d="M25.567,78.879c-0.193-0.555-0.529-0.832-1.008-0.832c-0.188,0-0.353,0.037-0.496,0.113
		s-0.264,0.182-0.361,0.3s-0.171,0.299-0.221,0.488s-0.074,0.396-0.074,0.623c0,0.2,0,0.4,0.1,0.619s0.123,0.4,0.2,0.5
		s0.218,0.2,0.4,0.32s0.309,0.1,0.5,0.115c0.516,0,0.877-0.373,1.086-1.121h0.676c-0.044,0.264-0.121,0.502-0.229,0.7
		s-0.24,0.396-0.396,0.547s-0.332,0.268-0.525,0.352s-0.398,0.125-0.611,0.125h-0.023c-0.289-0.006-0.545-0.064-0.77-0.176
		s-0.414-0.266-0.568-0.459s-0.272-0.422-0.352-0.682s-0.119-0.541-0.119-0.844c0-0.471,0.087-0.881,0.262-1.227
		c0.177-0.354,0.458-0.615,0.844-0.781c0.125-0.045,0.246-0.08,0.363-0.105s0.238-0.041,0.363-0.047c0.419,0,0.8,0.1,1.1,0.369
		s0.498,0.6,0.6,1.08h-0.741V78.879z"/>
	<path id="path258" d="M29.415,81.621h-0.602l-0.016-0.168c-0.102,0.107-0.217,0.184-0.348,0.229s-0.292,0.068-0.484,0.1
		c-0.164,0-0.304-0.018-0.42-0.053s-0.213-0.086-0.293-0.152s-0.141-0.148-0.184-0.246s-0.072-0.209-0.088-0.334v-2.359h0.617v2.094
		c0,0.1,0,0.3,0.1,0.344s0.182,0.1,0.3,0.121h0.043c0.12,0,0.225-0.021,0.314-0.066s0.165-0.107,0.225-0.189s0.105-0.18,0.135-0.293
		s0.045-0.238,0.045-0.377v-1.633h0.617v2.982H29.415z"/>
	<path id="path260" d="M30.782,80.621c0.013,0.2,0.1,0.3,0.2,0.434s0.326,0.2,0.6,0.152c0.042-0.008,0.09-0.02,0.146-0.035
		s0.109-0.039,0.16-0.068s0.094-0.068,0.129-0.117c0.035-0.049,0.053-0.109,0.053-0.182c0-0.094-0.034-0.162-0.102-0.207
		s-0.161-0.082-0.279-0.113s-0.258-0.064-0.418-0.1s-0.334-0.09-0.521-0.162c-0.159-0.055-0.277-0.15-0.355-0.285
		s-0.117-0.295-0.117-0.477c0-0.143,0.029-0.271,0.088-0.387s0.139-0.213,0.24-0.295s0.221-0.145,0.359-0.189
		s0.285-0.066,0.441-0.066c0.748,0,1.1,0.3,1.1,1.035H31.95c0-0.299-0.191-0.449-0.574-0.449c-0.068,0-0.131,0.01-0.191,0
		s-0.113,0.045-0.16,0.078s-0.084,0.07-0.111,0.113s-0.041,0.09-0.041,0.139c0,0.1,0.1,0.2,0.2,0.229s0.324,0.1,0.6,0.2
		c0.206,0.1,0.4,0.1,0.5,0.16s0.24,0.1,0.3,0.178s0.133,0.1,0.2,0.234s0.047,0.2,0,0.326v0.023c0,0.135-0.029,0.262-0.088,0.381
		s-0.138,0.223-0.238,0.311s-0.217,0.158-0.352,0.209s-0.277,0.076-0.428,0.076H31.56c-0.01,0-0.023,0.002-0.039,0.004
		s-0.029,0.004-0.039,0.004h-0.074c-0.406,0-0.708-0.096-0.904-0.287s-0.295-0.475-0.295-0.85h0.573V80.621z"/>
	<path id="path262" d="M34.083,77.836v0.77h0.449v0.574h-0.449v1.906c0,0.1,0.1,0.1,0.2,0.094c0.096,0,0.19-0.016,0.281-0.047v0.566
		c-0.091,0.029-0.172,0.045-0.244,0.051s-0.14,0.008-0.205,0.008h-0.063c-0.07,0-0.139-0.014-0.207-0.041s-0.127-0.064-0.178-0.109
		s-0.092-0.098-0.123-0.158s-0.047-0.123-0.047-0.188V79.18h-0.391v-0.574h0.391v-0.77L34.083,77.836z"/>
	<path id="path264" d="M37.868,80.133c0,0.264-0.031,0.494-0.094,0.695s-0.152,0.369-0.27,0.506s-0.261,0.24-0.432,0.311
		s-0.364,0.105-0.58,0.1c-0.432,0-0.768-0.137-1.008-0.412s-0.359-0.676-0.359-1.205c0-0.26,0.031-0.49,0.094-0.691
		s0.152-0.369,0.27-0.506s0.26-0.24,0.43-0.309s0.361-0.104,0.574-0.104c0.216,0,0.4,0,0.6,0.104s0.314,0.2,0.4,0.309
		s0.207,0.3,0.3,0.5s0.075,0.469,0.107,0.702H37.868z M37.247,80.133c0-0.131-0.016-0.256-0.049-0.375s-0.08-0.225-0.143-0.316
		s-0.141-0.164-0.234-0.219s-0.203-0.082-0.328-0.082c-0.109,0-0.209,0.025-0.301,0.074s-0.169,0.117-0.234,0.205
		s-0.116,0.191-0.152,0.3s-0.055,0.256-0.055,0.398c0,0.1,0,0.3,0.1,0.395s0.085,0.2,0.1,0.318s0.143,0.2,0.2,0.2
		s0.193,0.1,0.3,0.076c0.117,0,0.223-0.027,0.316-0.08s0.172-0.125,0.236-0.217s0.113-0.197,0.148-0.318s0.096-0.192,0.049-0.359
		H37.247z"/>
	<path id="path266" d="M38.692,81.621v-3.016h0.574l0.02,0.238c0.057-0.068,0.113-0.123,0.168-0.164s0.112-0.074,0.172-0.098
		s0.125-0.039,0.197-0.047s0.153-0.012,0.244-0.012c0.112,0,0.2,0,0.3,0.031s0.149,0,0.2,0.1s0.113,0.1,0.2,0.123
		s0.089,0.1,0.1,0.148l0.016-0.016H40.86c0.037-0.049,0.066-0.088,0.09-0.117s0.046-0.053,0.068-0.072s0.047-0.035,0.074-0.049
		s0.062-0.027,0.104-0.043c0.065-0.025,0.135-0.047,0.209-0.064s0.154-0.025,0.24-0.025H41.7c0.299,0,0.5,0.1,0.7,0.209
		s0.236,0.3,0.2,0.576v2.313h-0.617v-2.105c-0.044-0.281-0.202-0.422-0.473-0.422c-0.156,0-0.283,0.049-0.381,0.146
		s-0.16,0.225-0.186,0.381v2h-0.617V79.5c-0.029-0.271-0.178-0.406-0.449-0.406c-0.078,0-0.153,0.016-0.225,0.045
		s-0.135,0.072-0.189,0.127s-0.098,0.119-0.129,0.193s-0.047,0.154-0.047,0.24v1.922L38.692,81.621z"/>
	<path id="path268" d="M45.181,81.621V77.5h2.816v0.609h-2.145v1.098h1.879v0.598h-1.879v1.816H45.181z"/>
	<path id="path270" d="M49.122,77.5v0.59h-0.617V77.5H49.122z M49.122,78.605v3.016h-0.617v-3.016H49.122z"/>
	<path id="path272" d="M50.056,81.621v-3.016h0.617v0.273c0.089-0.109,0.185-0.195,0.289-0.26s0.202-0.096,0.293-0.096h0.336v0.641
		c-0.612,0-0.918,0.299-0.918,0.898v1.559L50.056,81.621L50.056,81.621z"/>
	<path id="path274" d="M52.126,81.621v-3.016H52.7l0.02,0.238c0.058-0.068,0.113-0.123,0.168-0.164S53,78.6,53.1,78.6
		s0.126-0.039,0.197-0.047s0.153-0.012,0.244-0.012c0.112,0,0.2,0,0.3,0.031s0.149,0,0.2,0.1s0.112,0.1,0.2,0.123
		s0.089,0.1,0.1,0.148l0.016-0.016h-0.008c0.036-0.049,0.066-0.088,0.09-0.117s0.046-0.053,0.068-0.072s0.047-0.035,0.074-0.049
		s0.062-0.027,0.104-0.043c0.065-0.025,0.135-0.047,0.209-0.064s0.154-0.025,0.24-0.025h0.055c0.3,0,0.5,0.1,0.7,0.209
		s0.236,0.3,0.2,0.576v2.313h-0.617V79.55c-0.044-0.281-0.202-0.422-0.473-0.422c-0.156,0-0.283,0.049-0.381,0.146
		s-0.159,0.225-0.186,0.381v2h-0.617V79.5c-0.028-0.271-0.179-0.406-0.449-0.406c-0.078,0-0.153,0.016-0.225,0.045
		s-0.135,0.072-0.189,0.127s-0.098,0.119-0.129,0.193s-0.047,0.154-0.047,0.24v1.922L52.126,81.621z"/>
	<path id="path276" d="M57.685,81.621l-0.863-3.016h0.688l0.496,1.984l0.496-1.984h0.688l0.465,1.977l0.527-1.977h0.688
		l-0.898,3.016h-0.637l-0.52-1.93l-0.48,1.93H57.685z"/>
	<path id="path278" d="M63.993,81.109c0,0,0,0,0,0.068s0.064,0,0.1,0.029c0.042,0,0.103-0.014,0.184-0.043v0.52
		c-0.164,0.045-0.308,0.066-0.43,0.066c-0.052,0-0.103-0.01-0.152-0.031s-0.095-0.049-0.137-0.082s-0.079-0.072-0.111-0.115
		s-0.06-0.086-0.08-0.131c-0.172,0.117-0.328,0.207-0.469,0.268s-0.271,0.092-0.391,0.092c-0.354,0-0.622-0.08-0.805-0.24
		s-0.273-0.383-0.273-0.666v-0.078c0.016-0.158,0.055-0.293,0.117-0.404s0.147-0.201,0.256-0.273s0.239-0.127,0.393-0.168
		s0.331-0.07,0.531-0.092c0.13-0.006,0.234-0.012,0.313-0.021s0.138-0.021,0.178-0.037s0.067-0.033,0.08-0.053
		s0.02-0.043,0.02-0.072v-0.328c-0.011-0.057-0.074-0.109-0.191-0.158s-0.274-0.072-0.473-0.072c-0.313,0-0.48,0.176-0.504,0.5
		h-0.59l0.023-0.359c0.026-0.111,0.075-0.213,0.146-0.303s0.158-0.166,0.26-0.23s0.216-0.113,0.342-0.146s0.259-0.051,0.396-0.051
		c0.198,0,0.4,0,0.5,0.059s0.28,0.1,0.4,0.154s0.183,0.1,0.2,0.219s0.078,0.2,0.1,0.252v1.926H63.993z M63.36,80.3
		c-0.089,0.025-0.176,0.049-0.262,0.066s-0.175,0.033-0.266,0.043h0.008c-0.099,0.018-0.192,0.037-0.281,0.1
		s-0.167,0.041-0.234,0.07s-0.121,0.066-0.16,0.113s-0.059,0.109-0.059,0.188v0.016c0,0.1,0,0.2,0.1,0.3s0.176,0.1,0.3,0.111h0.031
		c0.104,0,0.205-0.018,0.303-0.053s0.184-0.078,0.258-0.129s0.134-0.104,0.18-0.16s0.068-0.105,0.068-0.146v-0.565L63.36,80.3z"/>
	<path id="path280" d="M65.106,81.621v-3.016h0.617v0.273c0.089-0.109,0.185-0.195,0.289-0.26s0.202-0.096,0.293-0.096h0.336v0.641
		c-0.612,0-0.918,0.299-0.918,0.898v1.559L65.106,81.621L65.106,81.621z"/>
	<path id="path282" d="M67.649,80.375v0.008c0,0.1,0,0.3,0.1,0.359s0.109,0.2,0.2,0.252s0.167,0.1,0.3,0.1s0.202,0.1,0.3,0.051
		c0.073,0,0.137-0.002,0.191-0.006s0.104-0.014,0.148-0.031s0.086-0.043,0.125-0.078s0.086-0.084,0.141-0.146h0.672
		c-0.141,0.291-0.317,0.5-0.531,0.627S68.8,81.7,68.451,81.7c-0.2,0-0.385-0.033-0.553-0.098s-0.313-0.164-0.436-0.295
		s-0.218-0.297-0.285-0.494s-0.102-0.428-0.102-0.691v-0.039c0.005-0.268,0.046-0.504,0.121-0.705s0.176-0.371,0.301-0.506
		s0.269-0.236,0.432-0.305s0.334-0.102,0.514-0.102h0.059c0.208,0,0.4,0,0.5,0.1s0.266,0.1,0.4,0.252s0.167,0.2,0.2,0.355
		s0.094,0.3,0.1,0.404s0.058,0.4,0.1,0.758L67.649,80.375z M68.368,79.1c-0.078,0-0.155,0.016-0.23,0.047s-0.145,0.078-0.207,0.141
		s-0.116,0.141-0.16,0.236s-0.074,0.207-0.09,0.334h1.406c-0.021-0.25-0.083-0.439-0.186-0.566s-0.265-0.191-0.486-0.191
		L68.368,79.1L68.368,79.1z"/>
	<path id="path284" d="M70.919,80.621c0.013,0.2,0.1,0.3,0.2,0.434s0.325,0.2,0.6,0.152c0.042-0.008,0.091-0.02,0.146-0.035
		s0.109-0.039,0.16-0.068s0.094-0.068,0.129-0.117s0.053-0.109,0.053-0.182c0-0.094-0.034-0.162-0.102-0.207
		s-0.161-0.082-0.279-0.113s-0.258-0.064-0.418-0.1s-0.334-0.09-0.521-0.162c-0.159-0.055-0.277-0.15-0.355-0.285
		s-0.117-0.295-0.117-0.477c0-0.143,0.029-0.271,0.088-0.387s0.139-0.213,0.24-0.295s0.222-0.145,0.359-0.189
		s0.285-0.066,0.441-0.066c0.747,0,1.1,0.3,1.1,1.035h-0.602c0-0.299-0.191-0.449-0.574-0.449c-0.067,0-0.132,0.01-0.191,0.029
		s-0.113,0.045-0.16,0.078s-0.084,0.07-0.111,0.113s-0.041,0.09-0.041,0.1c0,0.1,0.1,0.2,0.2,0.229s0.323,0.1,0.6,0.154
		c0.206,0.1,0.4,0.1,0.5,0.16s0.24,0.1,0.3,0.2s0.133,0.1,0.2,0.234s0.047,0.2,0,0.326v0.023c0,0.135-0.029,0.262-0.088,0.381
		s-0.138,0.223-0.238,0.3s-0.218,0.158-0.352,0.209s-0.276,0.076-0.428,0.076h-0.016c-0.011,0-0.023,0.002-0.039,0.004
		s-0.028,0.004-0.039,0.004H71.49c-0.406,0-0.708-0.096-0.904-0.287s-0.295-0.475-0.295-0.85h0.628V80.621z"/>
</g>
<g id="g286">
	<path id="path288" d="M25.824,78.629c-0.193-0.555-0.529-0.832-1.008-0.832c-0.188,0-0.353,0.037-0.496,0.113
		s-0.264,0.182-0.361,0.3s-0.171,0.299-0.221,0.488s-0.074,0.396-0.074,0.623c0,0.2,0,0.4,0.1,0.619s0.123,0.4,0.2,0.5
		s0.218,0.2,0.4,0.32s0.309,0.1,0.5,0.115c0.516,0,0.877-0.373,1.086-1.121h0.676c-0.044,0.264-0.121,0.502-0.229,0.7
		s-0.24,0.396-0.396,0.547s-0.332,0.268-0.525,0.352S25.03,81.5,24.8,81.5h-0.023c-0.289-0.006-0.545-0.064-0.77-0.176
		s-0.414-0.266-0.568-0.459s-0.272-0.422-0.352-0.682s-0.119-0.541-0.119-0.844c0-0.471,0.087-0.881,0.262-1.227
		c0.177-0.354,0.458-0.615,0.844-0.781c0.125-0.045,0.246-0.08,0.363-0.105s0.238-0.041,0.363-0.047c0.419,0,0.8,0.1,1.1,0.369
		s0.498,0.6,0.6,1.08L25.824,78.629L25.824,78.629z"/>
	<path id="path290" d="M29.672,81.371H29.07l-0.016-0.168c-0.102,0.107-0.217,0.184-0.348,0.229S28.416,81.5,28.2,81.5
		c-0.164,0-0.304-0.018-0.42-0.053s-0.213-0.086-0.293-0.152s-0.141-0.148-0.184-0.246s-0.072-0.209-0.088-0.334v-2.359h0.617v2.094
		c0,0.1,0,0.3,0.1,0.344s0.182,0.1,0.3,0.121h0.043c0.12,0,0.225-0.021,0.314-0.066s0.165-0.107,0.225-0.189s0.105-0.18,0.135-0.293
		s0.045-0.238,0.045-0.377v-1.633h0.617v3.014H29.672z"/>
	<path id="path292" d="M31.039,80.371c0.013,0.2,0.1,0.3,0.2,0.434s0.326,0.2,0.6,0.152c0.042-0.008,0.09-0.02,0.146-0.035
		s0.109-0.039,0.16-0.068s0.094-0.068,0.129-0.117s0.053-0.109,0.053-0.182c0-0.094-0.034-0.162-0.102-0.207
		s-0.161-0.082-0.279-0.113s-0.258-0.064-0.418-0.1s-0.334-0.09-0.521-0.162c-0.159-0.055-0.277-0.15-0.355-0.285
		s-0.117-0.295-0.117-0.477c0-0.143,0.029-0.271,0.088-0.387s0.139-0.213,0.24-0.295s0.221-0.145,0.359-0.189
		s0.285-0.066,0.441-0.066c0.748,0,1.1,0.3,1.1,1.035h-0.602c0-0.299-0.191-0.449-0.574-0.449c-0.068,0-0.131,0.01-0.191,0.029
		s-0.113,0.045-0.16,0.078s-0.084,0.07-0.111,0.113s-0.041,0.09-0.041,0.1c0,0.1,0.1,0.2,0.2,0.229s0.324,0.1,0.6,0.154
		c0.206,0.1,0.4,0.1,0.5,0.16s0.24,0.1,0.3,0.2s0.133,0.1,0.2,0.234s0.047,0.2,0,0.326v0.023c0,0.135-0.029,0.262-0.088,0.381
		s-0.138,0.223-0.238,0.3s-0.217,0.158-0.352,0.209S31.983,81.5,31.8,81.5h-0.016c-0.01,0-0.023,0.002-0.039,0.004
		s-0.029,0.004-0.039,0.004h-0.074c-0.406,0-0.708-0.096-0.904-0.287s-0.295-0.475-0.295-0.85L31.039,80.371z"/>
	<path id="path294" d="M34.34,77.586v0.77h0.449v0.574H34.34v1.906c0,0.1,0.1,0.1,0.2,0.094c0.096,0,0.19-0.016,0.281-0.047v0.566
		c-0.091,0.029-0.172,0.045-0.244,0.051s-0.14,0.008-0.205,0.008h-0.063c-0.07,0-0.139-0.014-0.207-0.041s-0.127-0.064-0.178-0.109
		s-0.092-0.098-0.123-0.158s-0.047-0.123-0.047-0.188V78.93h-0.391v-0.574h0.391v-0.77L34.34,77.586z"/>
	<path id="path296" d="M38.125,79.883c0,0.264-0.031,0.494-0.094,0.695s-0.152,0.369-0.27,0.506s-0.261,0.24-0.432,0.311
		S36.966,81.5,36.8,81.5c-0.432,0-0.768-0.137-1.008-0.412s-0.359-0.676-0.359-1.205c0-0.26,0.031-0.49,0.094-0.691
		s0.152-0.369,0.27-0.506s0.26-0.24,0.43-0.309s0.361-0.104,0.574-0.104c0.216,0,0.4,0,0.6,0.104s0.314,0.2,0.4,0.309
		s0.207,0.3,0.3,0.5s0.024,0.414-0.001,0.697H38.125z M37.504,79.883c0-0.131-0.016-0.256-0.049-0.375s-0.08-0.225-0.143-0.316
		s-0.141-0.164-0.234-0.219s-0.203-0.082-0.328-0.082c-0.109,0-0.209,0.025-0.301,0.074s-0.169,0.117-0.234,0.205
		s-0.116,0.191-0.152,0.3s-0.055,0.256-0.055,0.398c0,0.1,0,0.3,0.1,0.395s0.085,0.2,0.1,0.318s0.143,0.2,0.2,0.2
		s0.193,0.1,0.3,0.076c0.117,0,0.223-0.027,0.316-0.08s0.172-0.125,0.236-0.217s0.113-0.197,0.148-0.318S37.504,80,37.5,79.883
		H37.504z"/>
	<path id="path298" d="M38.949,81.371v-3.016h0.574l0.02,0.238c0.057-0.068,0.113-0.123,0.168-0.164s0.112-0.074,0.172-0.098
		s0.125-0.039,0.197-0.047s0.153-0.012,0.244-0.012c0.112,0,0.2,0,0.3,0.031s0.149,0,0.2,0.1s0.113,0.1,0.2,0.123
		s0.089,0.1,0.1,0.148l0.016-0.016h-0.008c0.037-0.049,0.066-0.088,0.09-0.117s0.046-0.053,0.068-0.072s0.047-0.035,0.074-0.049
		s0.062-0.027,0.104-0.043c0.065-0.025,0.135-0.047,0.209-0.064s0.154-0.025,0.24-0.025h0.055c0.299,0,0.5,0.1,0.7,0.209
		s0.236,0.3,0.2,0.576v2.313h-0.617v-2.105c-0.044-0.281-0.202-0.422-0.473-0.422c-0.156,0-0.283,0.049-0.381,0.146
		s-0.16,0.225-0.186,0.381v2h-0.617V79.25c-0.029-0.271-0.178-0.406-0.449-0.406c-0.078,0-0.153,0.016-0.225,0.045
		s-0.135,0.072-0.189,0.127s-0.098,0.119-0.129,0.193s-0.047,0.154-0.047,0.24v1.922L38.949,81.371z"/>
	<path id="path300" d="M45.438,81.371V77.25h2.816v0.609h-2.145v1.098h1.879v0.598h-1.879v1.816H45.438z"/>
	<path id="path302" d="M49.379,77.25v0.59h-0.617v-0.59H49.379z M49.379,78.355v3.016h-0.617v-3.016H49.379z"/>
	<path id="path304" d="M50.313,81.371v-3.016h0.617v0.273c0.088-0.109,0.186-0.195,0.289-0.26s0.201-0.096,0.293-0.096h0.336v0.641
		c-0.611,0-0.918,0.299-0.918,0.898v1.559L50.313,81.371L50.313,81.371z"/>
	<path id="path306" d="M52.383,81.371v-3.016h0.574l0.02,0.238c0.057-0.068,0.113-0.123,0.168-0.164s0.111-0.074,0.172-0.098
		s0.125-0.039,0.197-0.047s0.152-0.012,0.244-0.012c0.111,0,0.2,0,0.3,0.031s0.148,0,0.2,0.1s0.113,0.1,0.2,0.123
		s0.09,0.1,0.1,0.148l0.016-0.016h-0.008c0.037-0.049,0.066-0.088,0.09-0.117s0.047-0.053,0.068-0.072s0.047-0.035,0.074-0.049
		s0.063-0.027,0.104-0.043c0.064-0.025,0.135-0.047,0.209-0.064s0.154-0.025,0.24-0.025h0.055c0.299,0,0.5,0.1,0.7,0.209
		s0.236,0.3,0.2,0.576v2.313h-0.617v-2.105c-0.045-0.281-0.201-0.422-0.473-0.422c-0.156,0-0.283,0.049-0.381,0.146
		s-0.16,0.225-0.186,0.381v2h-0.617V79.25c-0.029-0.271-0.178-0.406-0.449-0.406c-0.078,0-0.152,0.016-0.225,0.045
		s-0.135,0.072-0.189,0.127s-0.098,0.119-0.129,0.193S53,79.4,53,79.449v1.922L52.383,81.371z"/>
	<path id="path308" d="M57.941,81.371l-0.863-3.016h0.688l0.496,1.984l0.496-1.984h0.688l0.465,1.977l0.527-1.977h0.688
		l-0.898,3.016H59.59l-0.52-1.93l-0.48,1.93H57.941z"/>
	<path id="path310" d="M64.25,80.859c0,0,0,0,0,0.068s0.064,0,0.1,0.029c0.041,0,0.104-0.014,0.184-0.043v0.52
		c-0.164,0.045-0.307,0.066-0.43,0.066c-0.053,0-0.104-0.01-0.152-0.031s-0.096-0.049-0.137-0.082s-0.078-0.072-0.111-0.115
		s-0.059-0.086-0.08-0.131c-0.172,0.117-0.328,0.207-0.469,0.268S62.928,81.5,62.8,81.5c-0.354,0-0.623-0.08-0.805-0.24
		s-0.273-0.383-0.273-0.666v-0.078c0.016-0.158,0.055-0.293,0.117-0.404s0.148-0.201,0.256-0.273s0.238-0.127,0.393-0.168
		s0.33-0.07,0.531-0.092c0.131-0.006,0.234-0.012,0.313-0.021s0.137-0.021,0.178-0.037s0.066-0.033,0.08-0.053
		s0.02-0.043,0.02-0.072v-0.328c-0.01-0.057-0.074-0.109-0.191-0.158s-0.275-0.072-0.473-0.072c-0.313,0-0.48,0.176-0.504,0.5h-0.59
		l0.023-0.359c0.025-0.111,0.074-0.213,0.146-0.303s0.158-0.166,0.26-0.23s0.215-0.113,0.342-0.146s0.258-0.051,0.396-0.051
		c0.197,0,0.4,0,0.5,0.059s0.281,0.1,0.4,0.154s0.182,0.1,0.2,0.219s0.078,0.2,0.1,0.252v1.926H64.25z M63.617,80
		c-0.088,0.025-0.176,0.049-0.262,0.066s-0.174,0.033-0.266,0.043h0.008c-0.1,0.018-0.193,0.037-0.281,0.1s-0.166,0.041-0.234,0.07
		s-0.121,0.066-0.16,0.113s-0.059,0.109-0.059,0.188v0.016c0,0.1,0,0.2,0.1,0.3s0.176,0.1,0.3,0.111h0.031
		c0.104,0,0.205-0.018,0.303-0.053s0.184-0.078,0.258-0.129s0.135-0.104,0.18-0.16s0.068-0.105,0.068-0.146v-0.515L63.617,80z"/>
	<path id="path312" d="M65.363,81.371v-3.016h0.617v0.273c0.088-0.109,0.186-0.195,0.289-0.26s0.201-0.096,0.293-0.096h0.336v0.641
		c-0.611,0-0.918,0.299-0.918,0.898v1.559L65.363,81.371L65.363,81.371z"/>
	<path id="path314" d="M67.906,80.125v0.008c0,0.1,0,0.3,0.1,0.359s0.109,0.2,0.2,0.252s0.166,0.1,0.3,0.1s0.201,0.1,0.3,0.051
		c0.072,0,0.137-0.002,0.191-0.006s0.104-0.014,0.148-0.031s0.086-0.043,0.125-0.078s0.086-0.084,0.141-0.146h0.672
		c-0.141,0.291-0.318,0.5-0.531,0.627S68.99,81.5,68.6,81.5c-0.201,0-0.385-0.033-0.553-0.098s-0.313-0.164-0.436-0.295
		s-0.217-0.297-0.285-0.494s-0.102-0.428-0.102-0.691v-0.039c0.006-0.268,0.045-0.504,0.121-0.705s0.176-0.371,0.301-0.506
		s0.27-0.236,0.432-0.305s0.334-0.102,0.514-0.102h0.059c0.209,0,0.4,0,0.5,0.1s0.266,0.1,0.4,0.252s0.168,0.2,0.2,0.355
		s0.094,0.3,0.1,0.404s0.059,0.4,0.1,0.758L67.906,80.125z M68.625,78.8c-0.078,0-0.154,0.016-0.23,0.047s-0.145,0.078-0.207,0.141
		s-0.115,0.141-0.16,0.236s-0.074,0.207-0.09,0.334h1.406c-0.021-0.25-0.082-0.439-0.186-0.566s-0.266-0.191-0.486-0.191
		L68.625,78.8L68.625,78.8z"/>
	<path id="path316" d="M71.176,80.371c0.014,0.2,0.1,0.3,0.2,0.434s0.326,0.2,0.6,0.152c0.041-0.008,0.09-0.02,0.146-0.035
		s0.109-0.039,0.16-0.068s0.094-0.068,0.129-0.117s0.053-0.109,0.053-0.182c0-0.094-0.033-0.162-0.102-0.207
		s-0.16-0.082-0.279-0.113s-0.258-0.064-0.418-0.1s-0.334-0.09-0.521-0.162c-0.158-0.055-0.277-0.15-0.355-0.285
		s-0.117-0.295-0.117-0.477c0-0.143,0.029-0.271,0.088-0.387s0.139-0.213,0.24-0.295s0.221-0.145,0.359-0.189
		s0.285-0.066,0.441-0.066c0.748,0,1.1,0.3,1.1,1.035h-0.602c0-0.299-0.191-0.449-0.574-0.449c-0.068,0-0.131,0.01-0.191,0.029
		s-0.113,0.045-0.16,0.078s-0.084,0.07-0.111,0.113s-0.041,0.09-0.041,0.1c0,0.1,0.1,0.2,0.2,0.229s0.324,0.1,0.6,0.154
		c0.205,0.1,0.4,0.1,0.5,0.16s0.24,0.1,0.3,0.2s0.133,0.1,0.2,0.234s0.047,0.2,0,0.326v0.023c0,0.135-0.029,0.262-0.088,0.381
		s-0.139,0.223-0.238,0.3s-0.217,0.158-0.352,0.209S72.119,81.5,72,81.5h-0.016c-0.01,0-0.023,0.002-0.039,0.004
		s-0.029,0.004-0.039,0.004h-0.074c-0.406,0-0.707-0.096-0.904-0.287s-0.295-0.475-0.295-0.85L71.176,80.371z"/>
</g>
<path id="path126" fill="#DF2714" d="M48.9,34.8c0.1,1,0.8,1.2,1.9,1.7c1.1,0.5,4,2.4,4,5.8c0,3.3-3,5-3.3,5.3s0.5,0.9,0.5,0.9
	c-3.5-0.4-4.5-2.4-4.5-2.4c5.7-6-1.1-8.4-1.1-8.4c-3.3,6.5,2.9,13.6,3.5,14.8s-2.8,2.4-2.8,2.4c0.6-0.9,0.1-0.8,0.1-0.8
	c-0.6,0.5-2.5,1-2.5,1c-2.7-2.4-3.9-7.5-3.9-9.3c0-1.7,0.4-3.6,1.5-6.2c1.1-2.6,1-5,1-5c1.5,1.3,5.7,0.3,5.7,0.3L48.9,34.8z
	 M44.3,25c0,0-0.2,3.1,1.8,4c0,0-0.3-0.6-0.2-1.7C46,26.3,44.3,25,44.3,25z M49,23.6c0,0-0.7,2.5-1.4,3.4v0.9c0,0,1.6-1.7,2.4-3.3
	L49,23.6z M48.5,29.4c0,0,0.7-0.3,0.9-0.8s0.3-1.7,0.3-1.7c-0.4,0.8-2.1,2.6-2.1,2.6h0.9l0,0L48.5,29.4z M46.1,29.8
	c-1.8-0.1-2.7,2-2.7,2C46.1,31.2,46.1,29.8,46.1,29.8z M46.8,29.4v1.2h0.3v-1.2H46.8z M47.4,30.2c0,0,0.6,1.3,2.9,1.4
	C50.3,31.6,49.6,29.9,47.4,30.2z M47.1,32.6c0,0,0,1.3-0.3,1.7l0.6-0.1c0,0,0.1-1,0-1.6L47.1,32.6L47.1,32.6z M49.2,32.1
	c0,0-0.9,0-1.2,0.5c0,0,0,1.3-0.4,1.6c0,0,1.7,0.4,3.2-1.6c0,0-0.7,0-1.2,0.2c-0.5,0.3-0.7,0-0.5-0.2S49.2,32.1,49.2,32.1z M43,32.1
	c-0.6-0.6,0.5-1.4,0.5-1.4v-5.2c-1.1,0.8-2.6,2.3-2.6,4.9c0,4.3,4.8,4.2,5.2,4.2s0.4-1.2,0.4-2c-0.1-0.8-1.8-0.3-1.8-0.3
	c-0.1,0-0.9,0.4-1.5-0.1L43,32.1z M39.5,24.7c6.4-2.1,7.3,2.1,7.3,4c0,0,1-4.1-1.6-4.6c0,0-0.9-0.4-0.8-1.1
	C44.4,23,41.2,22.7,39.5,24.7z M44.6,21.2c0.1,0.2,0.6,0.9,0.6,0.9c-0.2,1.5,1.5,1.3,1.5,1.3c-0.2,1.5,1.5,1.5,1.6,0.6
	c0-0.8,0.5-2,1.1-3.3c0.7-1.3-1.1-1.5-1.8-1.5c-2.1,0.1-3,1.9-3,1.9L44.6,21.2z M45.2,19.7c0,0,1.4-1,2.2-0.9c0,0,1.1-1.2,0-1.2
	c-1.1-0.1-3.1,1.2-3.1,1.2l0.9,1L45.2,19.7z M46.8,16.6l-1.4,1.1l1.7-0.7L46.8,16.6z M47.4,15.8c0,0-0.1,1.2,1.3,1.9
	c0.4,0.2,0.2,0.6-0.2,0.5c-0.4,0-0.3,0.5-0.3,0.5s1.8,0.2,2.2-0.4c0.3-0.5,0.6-1.2,0-1.4C49.8,16.7,47.8,16.1,47.4,15.8z M51.4,17.6
	l-0.9,1.5l0.5,0.3l0.8-1.7l-0.5-0.1L51.4,17.6z M52.5,18c0,0-1,1.5-0.6,1.9s0.8,1.2,0.8,2c0,0.7-1.6,1.5-2.4,1.6
	c0,0,1.4,0.6,0.2,2.2c0,0,5-0.5,5-4.4C55.5,18.9,52.7,17.7,52.5,18z"/>
<radialGradient id="path54_1_" cx="48.0854" cy="32.3089" r="33.3432" gradientTransform="matrix(1.0938 0 0 1 -4.1583 0)" gradientUnits="userSpaceOnUse">
	<stop  offset="0" style="stop-color:#FFFFFF"/>
	<stop  offset="1" style="stop-color:#404040"/>
</radialGradient>
<path id="path54" inkscape:connector-curvature="0" fill="url(#path54_1_)" d="M32.265,58.6c-5.141,0-9.297-4.1-9.297-9.1V23.8
	c0-5,4.156-9.1,9.297-9.1h31.501c5.141,0,9.297,4.1,9.297,9.1v25.7c0,5-4.156,9.1-9.297,9.1H32.265z M70.767,23.5
	c0-4.5-3.719-8.2-8.204-8.2h-30.08c-4.485,0-8.204,3.7-8.204,8.2v24.9c0,4.5,3.719,8.2,8.204,8.2h30.08c4.485,0,8.204-3.7,8.204-8.2
	V23.6V23.5z"/>
</svg>
