<svg xmlns="http://www.w3.org/2000/svg" width="30" x="0" version="1.1" y="0" height="30" viewBox="0 0 30 30" baseProfile="tiny" xmlns:xlink="http://www.w3.org/1999/xlink" id="svg2" xml:space="preserve">
 <defs id="defs19"/>
 <g id="PLACE_YOUR_GRAPHIC_HERE">
  <path stroke-opacity="0.3" fill-opacity="0.3" id="path7" d="M15,1C7.822,1,2,6.822,2,13.996C2,21.18,7.822,27,15,27C22.182,27,28,21.18,28,13.996C28,6.822,22.182,1,15,1zM12.152,18.549C11.9,19.055,11.341,19.244,11.392,20.17C11.472,21.656,10.277,21.537,10.001,22.551C9.733,23.524,9.419,24.162,9.419,24.162C8.636,23.732,7.909,23.213,7.251,22.621C7.429,21.672,7.11,19.334,6.724,19.072C5.613,18.314,5.652,18.533,5.556,15.566C5.503,13.92,8.292,14.388,8.894,15.043C9.47,15.67,9.374,16.582,11.05,17.283C11.525,17.48,12.406,18.043,12.152,18.549zM11.248,5.66C10.656,5.875,10.424,5.836,10.016,5.566C9.443,5.184,8.197,6.203,8.967,6.563C9.229,6.684,9.701,6.725,10.449,6.981C11.642,7.393,11.988,8.1,11.297,8.286C7.846,9.222,9.461,10.298,8.152,11.608C7.48,12.28,7.525,12.549,7.05,12.71C6.468,12.903,6.374,12.056,5.825,12.032C5.63,12.022,4.024,12.059,3.618,12.059C3.561,12.059,3.63,11.627,3.63,11.627C4.182,8.93,5.676,6.576,7.75,4.918C7.75,4.918,9.896,3.291,11.699,2.881C12.496,2.701,14.082,2.348,13.976,2.897C13.861,3.49,11.844,5.449,11.248,5.66zM25.402,14.303C24.681,14.172,24.211,12.301,23.437,12.887C22.142,13.864,25.427,15.492,25.427,16.006C25.427,16.52,24.732,17.274,24.433,17.516C23.982,17.879,24.062,19.27,24.062,19.27C24.062,20.25,23.404,21.422,23.066,21.872C22.726,22.321,21.257,23.997,20.4,22.962C19.7611,22.192,20.3001,20.61,20.1131,18.919C20.0471,18.312,20.1621,16.585,17.5621,16.271C15.2491,15.994,15.4491,14.31,15.5991,13.457C15.8081,12.283,15.9371,11.586,16.9291,11.346C17.486,11.209,19.156,10.994,20.32,11.457C20.869,11.672,21.746,11.584,21.877,10.859C22.022,10.086,21.508,10.035,20.26,9.685C19.1391,9.369,18.0781,10.316,17.168,10.314C16.7601,10.314,16.7791,9.97,16.7891,9.488C16.7931,9.008,18.553,7.769,18.738,7.629C19.095,7.356,20.138,7.467,20.16,7.467C21.31,7.502,21.058,6.723,20.281,6.686C18.918,6.6201,19.019,5.9051,19.004,5.6901C18.9861,5.4731,19.203,4.9281,20.25,4.9011C20.59,4.8911,21.922,4.8371,22.283,4.9401C22.373,5.008,22.869,5.4401,22.869,5.4401C24.82,7.237,26.152,9.6941,26.514,12.458C26.534,12.874,26.582,13.313,26.567,13.446C26.533,13.684,26.053,14.424,25.402,14.303z"/>
  <path stroke-opacity="0.15" fill-opacity="0.15" id="path11" d="M15,29C7.28,29,1,22.718,1,14.996C1,7.279,7.28,1,15,1C22.72,1,29,7.279,29,14.996C29,22.718,22.72,29,15,29z"/>
  <path fill="#FFFFFF" id="path15" d="M15,2C7.822,2,2,7.822,2,14.996C2,22.18,7.822,28,15,28C22.182,28,28,22.18,28,14.996C28,7.822,22.182,2,15,2zM12.152,19.549C11.9,20.055,11.341,20.244,11.392,21.17C11.472,22.656,10.277,22.537,10.001,23.551C9.733,24.524,9.419,25.162,9.419,25.162C8.636,24.732,7.909,24.213,7.251,23.621C7.429,22.672,7.11,20.334,6.724,20.072C5.613,19.314,5.652,19.533,5.556,16.566C5.503,14.92,8.292,15.388,8.894,16.043C9.47,16.67,9.374,17.582,11.05,18.283C11.525,18.48,12.406,19.043,12.152,19.549zM11.248,6.66C10.656,6.875,10.424,6.836,10.016,6.566C9.443,6.184,8.197,7.203,8.967,7.563C9.229,7.684,9.701,7.725,10.449,7.981C11.642,8.393,11.988,9.1,11.297,9.286C7.846,10.222,9.461,11.298,8.152,12.608C7.48,13.28,7.525,13.549,7.05,13.71C6.468,13.903,6.374,13.056,5.825,13.032C5.63,13.022,4.024,13.059,3.618,13.059C3.561,13.059,3.63,12.627,3.63,12.627C4.182,9.93,5.676,7.576,7.75,5.918C7.75,5.918,9.896,4.291,11.699,3.881C12.496,3.701,14.082,3.348,13.976,3.897C13.861,4.49,11.844,6.449,11.248,6.66zM25.402,15.303C24.681,15.172,24.211,13.301,23.437,13.887C22.142,14.864,25.427,16.492,25.427,17.006C25.427,17.52,24.732,18.274,24.433,18.516C23.982,18.879,24.062,20.27,24.062,20.27C24.062,21.25,23.404,22.422,23.066,22.872C22.726,23.321,21.257,24.997,20.4,23.962C19.7611,23.192,20.3001,21.61,20.1131,19.919C20.0471,19.312,20.1621,17.585,17.5621,17.271C15.2491,16.994,15.4491,15.31,15.5991,14.457C15.8081,13.283,15.9371,12.586,16.9291,12.346C17.486,12.209,19.156,11.994,20.32,12.457C20.869,12.672,21.746,12.584,21.877,11.859C22.022,11.086,21.508,11.035,20.26,10.685C19.1391,10.369,18.0781,11.316,17.168,11.314C16.7601,11.314,16.7791,10.97,16.7891,10.488C16.7931,10.008,18.553,8.769,18.738,8.629C19.095,8.356,20.138,8.467,20.16,8.467C21.31,8.502,21.058,7.723,20.281,7.686C18.918,7.6201,19.019,6.9051,19.004,6.6901C18.9861,6.4731,19.203,5.9281,20.25,5.9011C20.59,5.8911,21.922,5.8371,22.283,5.9401C22.373,6.008,22.869,6.4401,22.869,6.4401C24.82,8.237,26.152,10.6941,26.514,13.458C26.534,13.874,26.582,14.313,26.567,14.446C26.533,14.684,26.053,15.424,25.402,15.303z"/>
 </g>
</svg>
