<svg xmlns="http://www.w3.org/2000/svg" xmlns:xlink="http://www.w3.org/1999/xlink" xmlns:a="http://ns.adobe.com/AdobeSVGViewerExtensions/3.0/" version="1.1" x="0px" y="0px" width="30px" height="30px" viewBox="0 0 30 30" enable-background="new 0 0 30 30" xml:space="preserve"><defs></defs><path fill-opacity="0.4" d="M30 15.185C30 26.163 26.111 30 15 30C3.889 30 0 26.163 0 15.185C0 4.21 3.889 0.369 15 0.369 C26.111 0.369 30 4.21 30 15.185z"/><linearGradient id="SVGID_1_" gradientUnits="userSpaceOnUse" x1="-128.755" y1="-952.485" x2="-128.755" y2="-981.33" gradientTransform="matrix(1 0 0 -1 143.7549 -952.9258)"><stop offset="0" style="stop-color:#B2C3CE"/><stop offset="1" style="stop-color:#596275"/></linearGradient><path fill="url(#SVGID_1_)" d="M30 14.816c0 10.974-3.889 14.816-15 14.816c-11.111 0-15-3.842-15-14.816C0 3.838 3.889 0 15 0 C26.111 0 30 3.838 30 14.816z"/><linearGradient id="SVGID_2_" gradientUnits="userSpaceOnUse" x1="-128.755" y1="-953.019" x2="-128.755" y2="-982.371" gradientTransform="matrix(1 0 0 -1 143.7549 -952.9258)"><stop offset="0" style="stop-color:#FFFFFF"/><stop offset="1" style="stop-color:#FFFFFF;stop-opacity:0"/></linearGradient><path fill="url(#SVGID_2_)" fill-opacity="0.3" d="M15 0C3.889 0 0 3.838 0 14.816C0 25.79 3.889 29.632 15 29.632 c11.111 0 15-3.842 15-14.816C30 3.838 26.111 0 15 0z M15 29.259c-10.935 0-14.626-3.643-14.626-14.443 C0.374 4.015 4.065 0.369 15 0.369c10.936 0 14.627 3.646 14.627 14.447C29.627 25.616 25.936 29.259 15 29.259z"/><path fill-opacity="0.03" d="M14.341 26.296c-2.088 0-3.662-1.563-3.662-3.638c0-1.042 0.396-1.976 1.106-2.63 c-0.344-0.344-0.542-0.807-0.542-1.299v-0.933c0-2.601 1.326-4.099 2.938-5.655l0.037-0.036c0.776-0.767 1.281-1.27 1.281-1.816 c0-0.539 0-0.868-1.26-0.868c-0.93 0-1.904 0.254-2.82 0.528c-0.176 0.051-0.359 0.076-0.542 0.076c-0.403 0-0.798-0.13-1.121-0.365 c-0.477-0.343-0.754-0.9-0.754-1.487V6.337c0-0.818 0.556-1.549 1.348-1.776c1.047-0.304 2.629-0.705 4.299-0.705 c4.622 0 7.383 2.351 7.383 6.287c0 2.702-1.626 4.355-3.054 5.812l-0.249 0.257c-1.26 1.296-1.311 1.458-1.311 1.736v0.781 c0 0.489-0.198 0.952-0.535 1.296c0.697 0.654 1.092 1.591 1.092 2.633C17.974 24.733 16.414 26.296 14.341 26.296z"/><path fill-opacity="0.05" d="M14.341 25.928c-1.875 0-3.281-1.407-3.281-3.269c0-1.123 0.498-2.066 1.325-2.638 c-0.462-0.253-0.769-0.738-0.769-1.292v-0.933c0-2.456 1.282-3.892 2.826-5.389l0.038-0.04c0.841-0.828 1.399-1.378 1.399-2.076 c0-0.702-0.125-1.237-1.641-1.237c-0.981 0-1.992 0.261-2.93 0.542c-0.139 0.04-0.286 0.062-0.432 0.062 c-0.322 0-0.638-0.105-0.901-0.293c-0.374-0.275-0.601-0.72-0.601-1.19V6.338c0-0.655 0.447-1.237 1.077-1.422 c1.025-0.296 2.578-0.688 4.196-0.688c4.388 0 7.01 2.21 7.01 5.915c0 2.554-1.568 4.148-2.952 5.555l-0.25 0.257 c-1.289 1.321-1.412 1.556-1.412 1.993v0.781c0 0.55-0.308 1.031-0.762 1.287c0.82 0.568 1.318 1.516 1.318 2.642 C17.6 24.521 16.201 25.928 14.341 25.928z"/><path fill-opacity="0.07" d="M14.341 25.556c-1.655 0-2.908-1.244-2.908-2.897c0-1.494 1.004-2.618 2.446-2.819h-0.762 c-0.622 0-1.12-0.498-1.12-1.109v-0.933c0-2.313 1.223-3.69 2.702-5.126l0.044-0.04c0.879-0.865 1.509-1.487 1.509-2.34 c0-0.966-0.344-1.606-2.014-1.606c-1.033 0-2.073 0.267-3.04 0.557c-0.103 0.029-0.213 0.047-0.322 0.047 c-0.241 0-0.483-0.08-0.674-0.221C9.917 8.862 9.748 8.525 9.748 8.174V6.337c0-0.488 0.337-0.93 0.812-1.067 c1.004-0.29 2.52-0.673 4.087-0.673c4.154 0 6.636 2.073 6.636 5.545c0 2.401-1.51 3.939-2.842 5.294l-0.257 0.262 c-1.312 1.341-1.522 1.656-1.522 2.249v0.781c0 0.61-0.506 1.11-1.122 1.11h-0.738c1.428 0.199 2.424 1.324 2.424 2.818 C17.227 24.312 15.989 25.556 14.341 25.556z"/><path fill-opacity="0.1" d="M14.341 25.187c-1.443 0-2.534-1.086-2.534-2.528c0-1.437 1.069-2.478 2.534-2.478 c1.458 0 2.513 1.041 2.513 2.478C16.854 24.101 15.776 25.187 14.341 25.187z M13.117 19.472c-0.41 0-0.747-0.334-0.747-0.742 v-0.933c0-2.168 1.172-3.484 2.593-4.858l0.044-0.047c0.908-0.894 1.618-1.595 1.618-2.601c0-1.367-0.731-1.979-2.387-1.979 c-1.077 0-2.153 0.275-3.149 0.572c-0.066 0.021-0.14 0.032-0.213 0.032c-0.161 0-0.322-0.05-0.447-0.145 c-0.19-0.137-0.307-0.362-0.307-0.597V6.337c0-0.326 0.227-0.619 0.542-0.709c0.981-0.286 2.46-0.662 3.984-0.662 c3.977 0 6.255 1.888 6.255 5.176c0 2.253-1.45 3.733-2.732 5.039l-0.256 0.26c-1.296 1.332-1.626 1.752-1.626 2.507v0.781 c0 0.409-0.337 0.743-0.748 0.743H13.117L13.117 19.472z"/><path fill-opacity="0.12" d="M14.341 24.817c-1.23 0-2.161-0.93-2.161-2.159c0-1.224 0.908-2.11 2.161-2.11 c1.237 0 2.139 0.887 2.139 2.11C16.479 23.888 15.557 24.817 14.341 24.817z M13.117 19.099c-0.205 0-0.373-0.167-0.373-0.369 v-0.933c0-2.03 1.076-3.231 2.483-4.595l0.051-0.047c0.923-0.916 1.721-1.707 1.721-2.865c0-1.58-0.9-2.347-2.761-2.347 c-1.127 0-2.234 0.282-3.253 0.586c-0.036 0.01-0.072 0.018-0.109 0.018c-0.081 0-0.161-0.026-0.227-0.072 c-0.095-0.072-0.147-0.181-0.147-0.3V6.337c0-0.163 0.111-0.308 0.265-0.354c0.959-0.275 2.41-0.644 3.881-0.644 c3.794 0 5.882 1.708 5.882 4.804c0 2.102-1.4 3.527-2.629 4.782l-0.257 0.261c-1.304 1.342-1.729 1.851-1.729 2.763v0.781 c0 0.202-0.168 0.369-0.374 0.369H13.117z"/><linearGradient id="SVGID_3_" gradientUnits="userSpaceOnUse" x1="-158.738" y1="148.327" x2="-158.738" y2="129.682" gradientTransform="matrix(1 0 0 -1 174.2549 153.5742)"><stop offset="0" style="stop-color:#F8FBEE"/><stop offset="0.3232" style="stop-color:#F8FBEE"/><stop offset="1" style="stop-color:#D2CBC5"/></linearGradient><path fill="url(#SVGID_3_)" d="M14.341 20.548c-1.047 0-1.787 0.732-1.787 1.74c0 1.007 0.74 1.788 1.787 1.788 c1.047 0 1.758-0.781 1.758-1.788C16.099 21.28 15.388 20.548 14.341 20.548z M14.648 5.339c-1.274 0-2.549 0.275-3.772 0.63v1.838 c1.091-0.329 2.219-0.604 3.362-0.604c1.86 0 3.135 0.756 3.135 2.72c0 1.335-0.915 2.217-1.882 3.172 c-1.355 1.309-2.373 2.442-2.373 4.333v0.93h2.424v-0.777c0-1.08 0.556-1.715 1.833-3.024c1.273-1.309 2.783-2.694 2.783-4.786 C20.156 6.445 17.658 5.339 14.648 5.339z"/><path fill="#FFFFFF" d="M14.648 5.339c-1.274 0-2.549 0.275-3.772 0.63v0.369c1.223-0.351 2.498-0.629 3.772-0.629 c2.951 0 5.405 1.074 5.5 4.257c0-0.065 0.008-0.127 0.008-0.195C20.156 6.445 17.658 5.339 14.648 5.339z M14.341 20.548 c-1.047 0-1.787 0.732-1.787 1.74c0 0.063 0.015 0.124 0.021 0.185c0.088-0.908 0.784-1.552 1.766-1.552 c0.981 0 1.662 0.644 1.743 1.552c0.008-0.062 0.015-0.123 0.015-0.185C16.099 21.28 15.388 20.548 14.341 20.548z M15.491 13.094 c-1.355 1.309-2.373 2.441-2.373 4.333v0.37c0-1.89 1.018-3.021 2.373-4.331c0.967-0.958 1.882-1.841 1.882-3.176 c0-0.065 0-0.123 0-0.188C17.292 11.336 16.414 12.183 15.491 13.094z"/><rect fill="none" width="30" height="30"/></svg>