<svg xmlns="http://www.w3.org/2000/svg" xmlns:xlink="http://www.w3.org/1999/xlink" xmlns:a="http://ns.adobe.com/AdobeSVGViewerExtensions/3.0/" version="1.1" x="0px" y="0px" width="30px" height="30px" viewBox="0 0 30 30" enable-background="new 0 0 30 30" xml:space="preserve"><defs></defs><path fill-opacity="0.4" d="M30 15.185C30 26.161 26.113 30 15 30C3.888 30 0 26.161 0 15.185C0 4.21 3.888 0.37 15 0.37 C26.113 0.37 30 4.21 30 15.185z"/><linearGradient id="SVGID_1_" gradientUnits="userSpaceOnUse" x1="-572.16" y1="1281.621" x2="-572.16" y2="1311.25" gradientTransform="matrix(1 0 0 1 587.1602 -1281.7461)"><stop offset="0" style="stop-color:#0077CD"/><stop offset="1" style="stop-color:#003F9A"/></linearGradient><path fill="url(#SVGID_1_)" d="M30 14.815c0 10.975-3.887 14.814-15 14.814c-11.112 0-15-3.839-15-14.814C0 3.839 3.888 0 15 0 C26.113 0 30 3.84 30 14.815z"/><linearGradient id="SVGID_2_" gradientUnits="userSpaceOnUse" x1="-572.16" y1="1281.839" x2="-572.16" y2="1311.188" gradientTransform="matrix(1 0 0 1 587.1602 -1281.7461)"><stop offset="0" style="stop-color:#FFFFFF"/><stop offset="1" style="stop-color:#FFFFFF;stop-opacity:0"/></linearGradient><path fill="url(#SVGID_2_)" fill-opacity="0.15" d="M15 0C3.888 0 0 3.84 0 14.815s3.888 14.814 15 14.814 c11.113 0 15-3.839 15-14.814C30 3.839 26.113 0 15 0z M15 29.259c-10.935 0-14.625-3.645-14.625-14.444S4.065 0.37 15 0.37 c10.936 0 14.625 3.646 14.625 14.445S25.936 29.259 15 29.259z"/><path fill-opacity="0.02" d="M13.793 26.324c-0.412 0-2.525-0.079-3.622-1.657c-0.749-1.076-0.802-2.463-0.158-4.119l2.269-6.567 c-0.22 0.122-0.47 0.188-0.728 0.188c-0.105 0-0.21-0.011-0.31-0.032l-0.671-0.136c-0.4-0.081-0.756-0.324-0.973-0.669 c-0.217-0.347-0.282-0.769-0.177-1.162c0.031-0.115 0.762-2.686 4.153-2.961c-0.403-0.581-0.625-1.273-0.625-1.988 c0-1.94 1.598-3.519 3.563-3.519c1.963 0 3.563 1.579 3.563 3.519c0 1.558-1.016 2.888-2.459 3.348 c0.076 0.087 0.148 0.179 0.211 0.273c0.75 1.078 0.805 2.463 0.158 4.119l-2.268 6.566c0.22-0.121 0.471-0.187 0.729-0.187 c0.102 0 0.201 0.01 0.301 0.029l0.682 0.139c0.402 0.081 0.756 0.326 0.975 0.671c0.215 0.345 0.279 0.769 0.174 1.159 c-0.033 0.122-0.846 2.985-4.757 2.985H13.793L13.793 26.324z"/><path fill-opacity="0.05" d="M13.793 25.954c-0.379 0-2.322-0.071-3.312-1.496c-0.676-0.971-0.713-2.242-0.116-3.776l2.351-6.807 c0.156-0.417 0.208-0.815 0.206-1.032c-0.007 0-0.02 0.002-0.02 0.002c0.006 0-0.171 0.052-0.372 0.397 c-0.201 0.344-0.575 0.558-0.976 0.558c-0.078 0-0.156-0.008-0.232-0.023l-0.673-0.136c-0.301-0.061-0.567-0.242-0.73-0.501 c-0.162-0.26-0.211-0.577-0.132-0.872c0.029-0.11 0.766-2.709 4.395-2.709c0.055 0 0.123 0 0.202 0.004 c-0.648-0.576-1.056-1.411-1.056-2.338c0-1.737 1.43-3.149 3.188-3.149s3.188 1.413 3.188 3.149c0 1.627-1.256 2.97-2.859 3.132 c0.25 0.186 0.482 0.416 0.678 0.699c0.676 0.97 0.715 2.241 0.117 3.776l-2.351 6.807c-0.157 0.417-0.209 0.816-0.205 1.033 c0.005-0.002 0.018-0.004 0.018-0.004c-0.004 0 0.173-0.051 0.374-0.396c0.2-0.345 0.575-0.558 0.975-0.558 c0.074 0 0.15 0.008 0.227 0.022l0.682 0.138c0.301 0.062 0.566 0.245 0.729 0.503c0.162 0.259 0.211 0.576 0.131 0.869 c-0.029 0.111-0.764 2.709-4.396 2.709H13.793L13.793 25.954z"/><path fill-opacity="0.05" d="M13.793 25.583c-0.346 0-2.119-0.064-3.003-1.334c-0.601-0.863-0.626-2.02-0.075-3.435l2.356-6.82 c0.22-0.583 0.292-1.286 0.155-1.481c-0.03-0.042-0.167-0.046-0.209-0.046c-0.049 0-0.102 0.003-0.159 0.01 c-0.024 0.003-0.342 0.046-0.653 0.58c-0.133 0.229-0.383 0.372-0.649 0.372c-0.052 0-0.104-0.005-0.153-0.016l-0.678-0.137 c-0.2-0.041-0.378-0.162-0.486-0.334c-0.109-0.173-0.141-0.384-0.089-0.58c0.026-0.099 0.687-2.434 4.033-2.434 c0.495 0 2.17 0.096 3.031 1.335c0.602 0.865 0.627 2.02 0.074 3.435l-2.356 6.821c-0.219 0.584-0.29 1.285-0.153 1.48 c0.029 0.043 0.166 0.046 0.208 0.046c0.05 0 0.103-0.004 0.161-0.011c0.024-0.002 0.342-0.045 0.652-0.58 c0.133-0.229 0.383-0.371 0.651-0.371c0.049 0 0.1 0.004 0.15 0.015l0.68 0.138c0.201 0.041 0.379 0.162 0.488 0.336 c0.107 0.172 0.139 0.382 0.086 0.578c-0.025 0.098-0.684 2.433-4.033 2.433L13.793 25.583L13.793 25.583z M16.516 10.001 c-1.55 0-2.813-1.247-2.813-2.778c0-1.532 1.262-2.779 2.813-2.779c1.551 0 2.813 1.247 2.813 2.779 C19.328 8.755 18.066 10.001 16.516 10.001L16.516 10.001z"/><path fill-opacity="0.1" d="M13.793 25.214c-0.314 0-1.917-0.057-2.694-1.176c-0.527-0.757-0.54-1.798-0.035-3.092l2.361-6.833 c0.188-0.501 0.381-1.424 0.107-1.812c-0.062-0.088-0.183-0.206-0.517-0.206c-0.064 0-0.132 0.004-0.205 0.013 c-0.042 0.004-0.519 0.055-0.932 0.764c-0.068 0.116-0.191 0.186-0.325 0.186c-0.025 0-0.05-0.002-0.075-0.008L10.8 12.912 c-0.101-0.02-0.189-0.081-0.244-0.167c-0.055-0.086-0.07-0.191-0.043-0.289c0.023-0.088 0.609-2.159 3.67-2.159c0 0 0.002 0 0.002 0 c0.345 0 1.943 0.059 2.719 1.175c0.525 0.757 0.539 1.797 0.035 3.091l-2.362 6.834c-0.189 0.501-0.381 1.426-0.107 1.813 c0.063 0.087 0.184 0.205 0.517 0.205c0.064 0 0.132-0.005 0.207-0.013c0.042-0.004 0.519-0.055 0.931-0.765 c0.068-0.117 0.193-0.186 0.324-0.186c0.025 0 0.051 0.001 0.076 0.008l0.68 0.138c0.102 0.021 0.189 0.081 0.242 0.168 c0.055 0.086 0.072 0.19 0.045 0.289c-0.023 0.088-0.609 2.158-3.672 2.158H13.793z M16.516 9.631c-1.345 0-2.437-1.08-2.437-2.408 c0-1.328 1.093-2.408 2.437-2.408s2.438 1.08 2.438 2.408C18.953 8.551 17.859 9.631 16.516 9.631L16.516 9.631z"/><path fill-opacity="0.1" d="M15.238 23.771c-2.056 0.249-1.016-2.493-1.016-2.493l2.366-6.846c1.504-3.861-2.405-3.763-2.405-3.763 c-2.807 0-3.308 1.882-3.308 1.882l0.681 0.137c0.535-0.918 1.21-0.946 1.21-0.946c2.056-0.25 1.016 2.491 1.016 2.491l-2.366 6.847 c-1.504 3.862 2.405 3.763 2.405 3.763c2.808 0 3.308-1.882 3.308-1.882l-0.68-0.138C15.914 23.742 15.238 23.771 15.238 23.771z M16.516 5.185c-1.14 0-2.063 0.913-2.063 2.038c0 1.125 0.923 2.038 2.063 2.038c1.139 0 2.063-0.913 2.063-2.038 C18.578 6.098 17.654 5.185 16.516 5.185z"/><linearGradient id="SVGID_3_" gradientUnits="userSpaceOnUse" x1="-378.508" y1="489.284" x2="-378.508" y2="599.635" gradientTransform="matrix(1 0 0 1 393.2349 -465.9063)"><stop offset="0" style="stop-color:#F8FBEE"/><stop offset="0.3232" style="stop-color:#F8FBEE"/><stop offset="1" style="stop-color:#D2CBC5"/></linearGradient><path fill="url(#SVGID_3_)" d="M15.238 22.733c-2.056 0.251-1.016-2.491-1.016-2.491l2.366-6.847 c1.504-3.862-2.405-3.763-2.405-3.763c-2.807 0-3.308 1.882-3.308 1.882l0.681 0.138c0.535-0.918 1.21-0.946 1.21-0.946 c2.056-0.25 1.016 2.492 1.016 2.492l-2.366 6.847c-1.504 3.861 2.405 3.763 2.405 3.763c2.808 0 3.308-1.881 3.308-1.881 l-0.68-0.138C15.914 22.707 15.238 22.733 15.238 22.733z M16.516 4.149c-1.14 0-2.063 0.912-2.063 2.038 c0 1.125 0.923 2.038 2.063 2.038c1.139 0 2.063-0.913 2.063-2.038C18.578 5.062 17.654 4.149 16.516 4.149z"/><path fill="#FFFFFF" d="M14.182 9.632c-2.807 0-3.307 1.882-3.307 1.882l0.148 0.03c0.294-0.542 1.112-1.542 3.16-1.542 c0 0 2.583-0.065 2.742 1.984C17.063 9.562 14.182 9.632 14.182 9.632z M16.516 4.149c-1.14 0-2.063 0.912-2.063 2.038 c0 0.063 0.004 0.125 0.01 0.186c0.095-1.039 0.977-1.853 2.053-1.853s1.959 0.813 2.053 1.853c0.008-0.061 0.012-0.123 0.012-0.186 C18.578 5.062 17.654 4.149 16.516 4.149z"/><rect fill="none" width="30" height="30"/></svg>